PathFileType	4	(X/Y/Z)	51_2_12_p0_0-322_filt_butterworth.trc
DataRate	CameraRate	NumFrames	NumMarkers	Units	OrigDataRate	OrigDataStartFrame	OrigNumFrames
59.0	59.0	5	27	m	59.0	0	322
Frame#	Time	RHip			RKnee			RAnkle			RBigToe			RSmallToe			RHeel			LHip			LKnee			LAnkle			LBigToe			LSmallToe			LHeel			Neck			Head			Nose			RShoulder			RElbow			RWrist			RThumb			RIndex			RPinky			LShoulder			LElbow			LWrist			LThumb			LIndex			LPinky			
		X1	Y1	Z1	X2	Y2	Z2	X3	Y3	Z3	X4	Y4	Z4	X5	Y5	Z5	X6	Y6	Z6	X7	Y7	Z7	X8	Y8	Z8	X9	Y9	Z9	X10	Y10	Z10	X11	Y11	Z11	X12	Y12	Z12	X13	Y13	Z13	X14	Y14	Z14	X15	Y15	Z15	X16	Y16	Z16	X17	Y17	Z17	X18	Y18	Z18	X19	Y19	Z19	X20	Y20	Z20	X21	Y21	Z21	X22	Y22	Z22	X23	Y23	Z23	X24	Y24	Z24	X25	Y25	Z25	X26	Y26	Z26	X27	Y27	Z27	
0	0.0	0.10207112056355866	0.48073348065788085	0.5674730482905739	0.10547943321390686	0.61127126421465	1.0436059637340451	0.10258068427474018	0.661442337948858	1.4760136562405302	0.05388675574203303	0.5097540054807486	1.5199845256884972	0.10933234916551071	0.5169526286899139	1.5197631705859218	0.07036481906207424	0.7097713363388968	1.5375486009939852	-0.11097269463325554	0.5052754938845726	0.5979555336061432	-0.12951072041884454	0.5874459686430565	1.047591671971707	-0.13844723411960713	0.6473438651280983	1.4883854966921364	-0.1041101595580539	0.4929996931093711	1.5111375386085044	-0.16182463943748715	0.5178807228487698	1.5164558642034607	-0.1402759792306304	0.6850751347104863	1.539782169205417	0.0019530685670433863	0.4632005821033376	0.0026375277429844285	0.008330521955423453	0.38945840980262875	-0.23338725159406662	-0.0026699138513952766	0.32739628641807217	-0.10753025112172572	0.1585966527137484	0.47407571618423544	0.1093465035650278	0.17398533962975088	0.46511421557341087	0.3604987586261916	0.04682301427217983	0.38583759802403234	0.555578351912303	-0.015526816132603493	0.3627986035264537	0.6608186938990261	-0.024602097043526915	0.3739663738107559	0.6618300375438493	-0.024723757962113537	0.36114740566026743	0.6526041095944367	-0.15854475617906158	0.4831580817371858	0.09922627799087627	-0.1891613974344006	0.43536572694994236	0.35781102033043444	-0.06099971781181585	0.35304858835260594	0.5478008113073478	0.04136614887163906	0.3171584341536928	0.5957668597881715	0.037348248959571145	0.3276053929182643	0.6433223620010053	-0.02175380670107406	0.34978525007429984	0.6630222681294974
1	0.0169491525423728	0.10273515874369134	0.4789563449931273	0.5699530657852157	0.1054636792837047	0.6107904084248975	1.0473593150156715	0.10263872326730561	0.661393550876138	1.475951891364781	0.05373777490018611	0.5092845555693076	1.5196106185529081	0.11194331193840043	0.5062680632580614	1.5129436922911408	0.0706793095999176	0.7102126497546195	1.5339277700901737	-0.11103408606505974	0.5046582021731107	0.5964322493161421	-0.127164916107863	0.5884641687167332	1.0464602233124498	-0.13914766685901156	0.6475755856748605	1.489557363982345	-0.10261274300435383	0.501739201404636	1.5154215605664378	-0.16104296788092343	0.5175814612562499	1.5140190492582413	-0.13777631989425076	0.6864399140460612	1.54040568747129	0.0019537212424226716	0.46317865447253126	0.002613736879654256	0.009428121542901907	0.390317658781828	-0.23443679853983132	-0.0026192882332086906	0.32740958051390323	-0.10755538123949038	0.15718772094380218	0.47899511067216477	0.1095588765288848	0.1771572857852202	0.468996061075026	0.3624422040760482	0.04777465842231661	0.3864776805932504	0.5601023681091511	-0.01762819149191062	0.36340213839038416	0.65984483759101	-0.02499148906090156	0.3739834852055598	0.6618201357633762	-0.023719817243438426	0.3577455299663939	0.650875069028402	-0.15702970512161485	0.48334662278265766	0.09711789114568199	-0.1861411635104715	0.43536492997760046	0.3581352658551037	-0.05944621403454259	0.3612144840044491	0.5491412132447322	0.04038967322004845	0.3185632173040786	0.5962714255965482	0.036102878778578214	0.32921177198067714	0.6437389438141736	-0.020478092156265403	0.350484650439986	0.663193470557801
2	0.0338983050847457	0.10403660072815749	0.47537379667965307	0.5720562920065493	0.1054725825637984	0.6105015426257978	1.049409131083514	0.10267138965479777	0.6613675537975187	1.4759058117724233	0.05347847756649945	0.5086653439843485	1.518464659334895	0.11336949789557457	0.49971922739505076	1.508242468549298	0.07078423878782504	0.7106147291558648	1.532439704272236	-0.11101534538007257	0.5043388229282157	0.5958430186286394	-0.12646874969986385	0.5888958343888874	1.0455482945628036	-0.13951036822733318	0.6478144149155227	1.4892393337524132	-0.10175001518262373	0.5067505835713424	1.517817831579845	-0.16063587150537334	0.5174840871373196	1.5125953317731307	-0.13628570278514557	0.6872487811234208	1.5407561985980627	0.0019435389395577396	0.4631705445406712	0.00258725213730772	0.009891882341677472	0.3907161896381055	-0.23489717050851372	-0.0025904300134789956	0.32742646445195084	-0.1075813428987209	0.15583467124252126	0.4836917772307501	0.10974748802886246	0.1785605356367987	0.4732986596987063	0.3643265927839202	0.04823821741812747	0.38695712112120617	0.5625248089888506	-0.02073551131339422	0.3659671103827954	0.6590028868711515	-0.026009891741545475	0.37399884348797563	0.6613308954355306	-0.023536878591007247	0.35696303043665384	0.6511025841122712	-0.15558299234443945	0.4838109363787303	0.09585959325852074	-0.18324176121479857	0.4334492052981692	0.3587033917912429	-0.058572381936313686	0.3661699310421457	0.550041951488622	0.03775193589843985	0.3220832424538664	0.5983871602492334	0.03315920773769375	0.3326597307503782	0.6446647944293754	-0.019913041123285614	0.35088112650607023	0.6632766061701149
3	0.0508474576271186	0.10581502991204889	0.4707590970856803	0.5739426183144059	0.10548914938068049	0.6103940667322614	1.0494713507190392	0.10267574781655903	0.6613666978021339	1.475882421816586	0.05315652523558203	0.5079896913877214	1.516734920128811	0.11361845036725274	0.49773951111027276	1.5062317306662876	0.07074025544912253	0.7109363043608006	1.5327495834370946	-0.11088849763535132	0.5044144677057218	0.5966938046772452	-0.12729062816845202	0.5887768510931938	1.044724174192461	-0.1394204878164168	0.647966825040591	1.4874560603074933	-0.10157401839192534	0.5078333344694939	1.518228578064064	-0.1606113925940423	0.5175738811931261	1.5122377737684671	-0.13586787297119707	0.6874659587456906	1.5408184073451574	0.001927293818253181	0.46317323215931083	0.0025609898784786454	0.009521796257155175	0.390499598744176	-0.2345848802785855	-0.0025891362606707408	0.32744761434633257	-0.1076037837646951	0.15489110654396882	0.4869205835180602	0.109867863064332	0.17843249529451083	0.476922776677272	0.36536359453442413	0.048319762433921803	0.38681810398117006	0.5624655523977388	-0.024569546942297082	0.3700036115059785	0.6581580167940508	-0.027506002979728217	0.3740320655783933	0.6601446774431252	-0.02384136562395073	0.3579895207478643	0.6532327644367182	-0.1545881932077623	0.48429814920283365	0.09551210800932422	-0.18060597129166334	0.43015228043328607	0.3595149975698578	-0.058379284556651014	0.3676222750689678	0.5506492860791259	0.03383542464023172	0.3271740074684013	0.6018204588986398	0.02900779457976345	0.33733426971646585	0.6459113637568253	-0.020254638180707135	0.3509000393456402	0.6632494409044632
4	0.0677966101694915	0.10727963804083826	0.46746863754905293	0.5756264561510238	0.10541479760611944	0.6103621709147558	1.0487479203407066	0.10266537252482008	0.6613853130968214	1.475876231061517	0.05291911243594452	0.5075142568924914	1.5153229159073982	0.11341186739649166	0.4980952037033196	1.505992203175653	0.07068441401653708	0.7110960115043555	1.5333932380206816	-0.1106921004196978	0.5045776115672215	0.5985075579630538	-0.12835016608527225	0.5884104669529261	1.0440184438214972	-0.1390661171743503	0.6480027732945457	1.4853620832335608	-0.10172146635315898	0.5071402260422985	1.5177647739085807	-0.1607348365177262	0.5177217188351422	1.512378023342796	-0.13595849907087273	0.6874081119248094	1.5407604483031578	0.0019161506347947451	0.46317741972903503	0.0025420047555510814	0.008827686489366784	0.39001646817011687	-0.23395182778018417	-0.0026056046061279517	0.32746428882276274	-0.1076175939935756	0.15453230396705175	0.4881003297314202	0.10991259864460812	0.177959297243388	0.4789131437376002	0.3649936374152421	0.04878810916894181	0.3851820970662104	0.5609743604206383	-0.027567517871237977	0.3734420143514686	0.6569286572436983	-0.0287188831563051	0.37411477223967543	0.6586279817475987	-0.02406906606936349	0.35883830970172204	0.6554052541083135	-0.1542362273159572	0.4844173464630746	0.09560131531755484	-0.17860201647071416	0.42761505446664627	0.3604827979662166	-0.058290643317424985	0.36699172587590845	0.5512964473337648	0.030672907065474243	0.33092454500076557	0.6043454364710303	0.025827338830387327	0.3406726890493137	0.6467746196109784	-0.020946418777630118	0.35071187188778796	0.6631762563439535
